<mxfile host="app.diagrams.net" modified="2023-11-07T18:00:18.345Z" agent="Mozilla/5.0 (Windows NT 10.0; Win64; x64) AppleWebKit/537.36 (KHTML, like Gecko) Chrome/119.0.0.0 Safari/537.36" etag="RN4QjpYyOVjGYtpAgMN_" version="22.0.8" type="device">
  <diagram name="Seite-1" id="q3xato2e6NY34qq9cj7r">
    <mxGraphModel dx="988" dy="532" grid="1" gridSize="10" guides="1" tooltips="1" connect="1" arrows="1" fold="1" page="1" pageScale="1" pageWidth="827" pageHeight="1169" math="0" shadow="0">
      <root>
        <mxCell id="0" />
        <mxCell id="1" parent="0" />
        <mxCell id="SF0BS2AjwP8YmUdi56_B-28" value="return" style="html=1;verticalAlign=bottom;endArrow=open;dashed=1;endSize=8;curved=0;rounded=0;exitX=0;exitY=1;exitDx=0;exitDy=-5;" edge="1" parent="1">
          <mxGeometry relative="1" as="geometry">
            <mxPoint x="105" y="183" as="targetPoint" />
            <mxPoint x="255" y="183" as="sourcePoint" />
            <mxPoint as="offset" />
          </mxGeometry>
        </mxCell>
        <mxCell id="9mUgk6PYQdZ4tkyqG1O2-59" value="" style="rounded=0;whiteSpace=wrap;html=1;" parent="1" vertex="1">
          <mxGeometry x="80" y="200" width="460" height="170" as="geometry" />
        </mxCell>
        <mxCell id="9mUgk6PYQdZ4tkyqG1O2-2" value="Programmier-schnittstelle (API)" style="rounded=0;whiteSpace=wrap;html=1;" parent="1" vertex="1">
          <mxGeometry x="200" y="40" width="120" height="40" as="geometry" />
        </mxCell>
        <mxCell id="9mUgk6PYQdZ4tkyqG1O2-3" value="GameController" style="rounded=0;whiteSpace=wrap;html=1;" parent="1" vertex="1">
          <mxGeometry x="360" y="40" width="120" height="40" as="geometry" />
        </mxCell>
        <mxCell id="9mUgk6PYQdZ4tkyqG1O2-11" style="edgeStyle=orthogonalEdgeStyle;rounded=0;orthogonalLoop=1;jettySize=auto;html=1;entryX=0.5;entryY=1;entryDx=0;entryDy=0;endArrow=none;endFill=0;dashed=1;" parent="1" target="9mUgk6PYQdZ4tkyqG1O2-2" edge="1">
          <mxGeometry relative="1" as="geometry">
            <mxPoint x="260" y="370" as="sourcePoint" />
          </mxGeometry>
        </mxCell>
        <mxCell id="9mUgk6PYQdZ4tkyqG1O2-13" style="edgeStyle=orthogonalEdgeStyle;rounded=0;orthogonalLoop=1;jettySize=auto;html=1;entryX=0.5;entryY=1;entryDx=0;entryDy=0;endArrow=none;endFill=0;dashed=1;exitX=0.739;exitY=0.992;exitDx=0;exitDy=0;exitPerimeter=0;" parent="1" source="9mUgk6PYQdZ4tkyqG1O2-59" target="9mUgk6PYQdZ4tkyqG1O2-3" edge="1">
          <mxGeometry relative="1" as="geometry">
            <mxPoint x="420" y="250" as="sourcePoint" />
          </mxGeometry>
        </mxCell>
        <mxCell id="9mUgk6PYQdZ4tkyqG1O2-31" style="edgeStyle=orthogonalEdgeStyle;rounded=0;orthogonalLoop=1;jettySize=auto;html=1;exitX=0.5;exitY=0;exitDx=0;exitDy=0;entryX=0.5;entryY=1;entryDx=0;entryDy=0;endArrow=none;endFill=0;dashed=1;" parent="1" edge="1">
          <mxGeometry relative="1" as="geometry">
            <mxPoint x="260" y="190" as="sourcePoint" />
            <mxPoint x="260" y="170" as="targetPoint" />
          </mxGeometry>
        </mxCell>
        <mxCell id="SF0BS2AjwP8YmUdi56_B-1" value="" style="html=1;points=[[0,0,0,0,5],[0,1,0,0,-5],[1,0,0,0,5],[1,1,0,0,-5]];perimeter=orthogonalPerimeter;outlineConnect=0;targetShapes=umlLifeline;portConstraint=eastwest;newEdgeStyle={&quot;curved&quot;:0,&quot;rounded&quot;:0};" vertex="1" parent="1">
          <mxGeometry x="255" y="100" width="10" height="90" as="geometry" />
        </mxCell>
        <mxCell id="SF0BS2AjwP8YmUdi56_B-2" value="Zugriff auf API" style="html=1;verticalAlign=bottom;endArrow=block;curved=0;rounded=0;entryX=0;entryY=0;entryDx=0;entryDy=5;exitX=0.98;exitY=0.132;exitDx=0;exitDy=0;exitPerimeter=0;" edge="1" target="SF0BS2AjwP8YmUdi56_B-1" parent="1" source="9mUgk6PYQdZ4tkyqG1O2-8">
          <mxGeometry x="-0.0048" relative="1" as="geometry">
            <mxPoint x="110" y="100" as="sourcePoint" />
            <mxPoint as="offset" />
          </mxGeometry>
        </mxCell>
        <mxCell id="SF0BS2AjwP8YmUdi56_B-4" value="" style="html=1;points=[[0,0,0,0,5],[0,1,0,0,-5],[1,0,0,0,5],[1,1,0,0,-5]];perimeter=orthogonalPerimeter;outlineConnect=0;targetShapes=umlLifeline;portConstraint=eastwest;newEdgeStyle={&quot;curved&quot;:0,&quot;rounded&quot;:0};" vertex="1" parent="1">
          <mxGeometry x="415" y="120" width="10" height="60" as="geometry" />
        </mxCell>
        <mxCell id="SF0BS2AjwP8YmUdi56_B-5" value="Erstelle Objekt" style="html=1;verticalAlign=bottom;endArrow=block;curved=0;rounded=0;entryX=0;entryY=0;entryDx=0;entryDy=5;" edge="1" target="SF0BS2AjwP8YmUdi56_B-4" parent="1" source="SF0BS2AjwP8YmUdi56_B-1">
          <mxGeometry relative="1" as="geometry">
            <mxPoint x="345" y="205" as="sourcePoint" />
            <mxPoint as="offset" />
          </mxGeometry>
        </mxCell>
        <mxCell id="SF0BS2AjwP8YmUdi56_B-6" value="return" style="html=1;verticalAlign=bottom;endArrow=open;dashed=1;endSize=8;curved=0;rounded=0;exitX=0;exitY=1;exitDx=0;exitDy=-5;" edge="1" source="SF0BS2AjwP8YmUdi56_B-4" parent="1" target="SF0BS2AjwP8YmUdi56_B-1">
          <mxGeometry relative="1" as="geometry">
            <mxPoint x="345" y="275" as="targetPoint" />
            <mxPoint as="offset" />
          </mxGeometry>
        </mxCell>
        <mxCell id="SF0BS2AjwP8YmUdi56_B-10" value="&lt;font style=&quot;font-size: 10px;&quot;&gt;Attribut bearbeiten&lt;br&gt;&amp;nbsp;und&lt;br&gt;&amp;nbsp;Objekt updaten&lt;/font&gt;" style="html=1;align=center;spacingLeft=2;endArrow=block;rounded=0;edgeStyle=orthogonalEdgeStyle;curved=0;rounded=0;exitX=1;exitY=0;exitDx=0;exitDy=5;exitPerimeter=0;" edge="1" target="SF0BS2AjwP8YmUdi56_B-9" parent="1" source="SF0BS2AjwP8YmUdi56_B-16">
          <mxGeometry x="0.3226" y="50" relative="1" as="geometry">
            <mxPoint x="425" y="245" as="sourcePoint" />
            <Array as="points">
              <mxPoint x="424" y="265" />
              <mxPoint x="440" y="265" />
              <mxPoint x="440" y="290" />
            </Array>
            <mxPoint as="offset" />
          </mxGeometry>
        </mxCell>
        <mxCell id="SF0BS2AjwP8YmUdi56_B-16" value="" style="html=1;points=[[0,0,0,0,5],[0,1,0,0,-5],[1,0,0,0,5],[1,1,0,0,-5]];perimeter=orthogonalPerimeter;outlineConnect=0;targetShapes=umlLifeline;portConstraint=eastwest;newEdgeStyle={&quot;curved&quot;:0,&quot;rounded&quot;:0};" vertex="1" parent="1">
          <mxGeometry x="414" y="250" width="10" height="70" as="geometry" />
        </mxCell>
        <mxCell id="SF0BS2AjwP8YmUdi56_B-17" value="&lt;font style=&quot;font-size: 10px;&quot;&gt;Veränderte&lt;br&gt;&amp;nbsp;Attribute&lt;br&gt;&amp;nbsp;weiterleiten&lt;/font&gt;" style="html=1;verticalAlign=bottom;endArrow=block;curved=0;rounded=0;" edge="1" parent="1">
          <mxGeometry x="-0.0223" relative="1" as="geometry">
            <mxPoint x="265" y="256" as="sourcePoint" />
            <mxPoint x="413.19" y="256" as="targetPoint" />
            <mxPoint as="offset" />
          </mxGeometry>
        </mxCell>
        <mxCell id="SF0BS2AjwP8YmUdi56_B-18" value="&lt;font style=&quot;font-size: 10px;&quot;&gt;Update-Infos zurückleiten&lt;/font&gt;" style="html=1;verticalAlign=bottom;endArrow=open;dashed=1;endSize=8;curved=0;rounded=0;exitX=0;exitY=1;exitDx=0;exitDy=-5;" edge="1" parent="1" target="SF0BS2AjwP8YmUdi56_B-23">
          <mxGeometry x="0.0014" relative="1" as="geometry">
            <mxPoint x="270" y="314.86" as="targetPoint" />
            <mxPoint x="413" y="314.86" as="sourcePoint" />
            <mxPoint as="offset" />
          </mxGeometry>
        </mxCell>
        <mxCell id="SF0BS2AjwP8YmUdi56_B-9" value="" style="html=1;points=[[0,0,0,0,5],[0,1,0,0,-5],[1,0,0,0,5],[1,1,0,0,-5]];perimeter=orthogonalPerimeter;outlineConnect=0;targetShapes=umlLifeline;portConstraint=eastwest;newEdgeStyle={&quot;curved&quot;:0,&quot;rounded&quot;:0};" vertex="1" parent="1">
          <mxGeometry x="419" y="280" width="10" height="30" as="geometry" />
        </mxCell>
        <mxCell id="SF0BS2AjwP8YmUdi56_B-23" value="" style="html=1;points=[[0,0,0,0,5],[0,1,0,0,-5],[1,0,0,0,5],[1,1,0,0,-5]];perimeter=orthogonalPerimeter;outlineConnect=0;targetShapes=umlLifeline;portConstraint=eastwest;newEdgeStyle={&quot;curved&quot;:0,&quot;rounded&quot;:0};" vertex="1" parent="1">
          <mxGeometry x="255" y="240" width="10" height="90" as="geometry" />
        </mxCell>
        <mxCell id="SF0BS2AjwP8YmUdi56_B-24" value="&lt;font style=&quot;font-size: 10px;&quot;&gt;Instanzattribut &lt;br&gt;wird bearbeitet&lt;/font&gt;" style="html=1;verticalAlign=bottom;endArrow=block;curved=0;rounded=0;entryX=0;entryY=0;entryDx=0;entryDy=5;exitX=0.94;exitY=0.726;exitDx=0;exitDy=0;exitPerimeter=0;" edge="1" target="SF0BS2AjwP8YmUdi56_B-23" parent="1">
          <mxGeometry x="0.004" relative="1" as="geometry">
            <mxPoint x="104.39999999999986" y="244.10000000000002" as="sourcePoint" />
            <mxPoint as="offset" />
          </mxGeometry>
        </mxCell>
        <mxCell id="SF0BS2AjwP8YmUdi56_B-25" value="&lt;font style=&quot;font-size: 10px;&quot;&gt;Update-Infos zurückgeben&lt;br&gt;/ darstellen&lt;/font&gt;" style="html=1;verticalAlign=bottom;endArrow=open;dashed=1;endSize=8;curved=0;rounded=0;exitX=0;exitY=1;exitDx=0;exitDy=-5;" edge="1" source="SF0BS2AjwP8YmUdi56_B-23" parent="1" target="SF0BS2AjwP8YmUdi56_B-32">
          <mxGeometry x="-0.0039" y="-1" relative="1" as="geometry">
            <mxPoint x="104.39999999999986" y="323.89999999999986" as="targetPoint" />
            <mxPoint as="offset" />
          </mxGeometry>
        </mxCell>
        <mxCell id="SF0BS2AjwP8YmUdi56_B-8" value="" style="shape=umlLifeline;perimeter=lifelinePerimeter;whiteSpace=wrap;html=1;container=1;dropTarget=0;collapsible=0;recursiveResize=0;outlineConnect=0;portConstraint=eastwest;newEdgeStyle={&quot;curved&quot;:0,&quot;rounded&quot;:0};participant=umlActor;" vertex="1" parent="1">
          <mxGeometry x="90" y="40" width="20" height="330" as="geometry" />
        </mxCell>
        <mxCell id="SF0BS2AjwP8YmUdi56_B-30" value="" style="html=1;align=left;spacingLeft=2;endArrow=block;rounded=0;edgeStyle=orthogonalEdgeStyle;curved=0;rounded=0;entryX=1;entryY=0;entryDx=0;entryDy=5;entryPerimeter=0;" edge="1" target="SF0BS2AjwP8YmUdi56_B-32" parent="SF0BS2AjwP8YmUdi56_B-8">
          <mxGeometry relative="1" as="geometry">
            <mxPoint x="15" y="180" as="sourcePoint" />
            <Array as="points">
              <mxPoint x="40" y="180" />
              <mxPoint x="40" y="193" />
            </Array>
            <mxPoint x="20" y="210.00800000000004" as="targetPoint" />
          </mxGeometry>
        </mxCell>
        <mxCell id="9mUgk6PYQdZ4tkyqG1O2-8" value="" style="rounded=0;whiteSpace=wrap;html=1;" parent="1" vertex="1">
          <mxGeometry x="95" y="90" width="10" height="120" as="geometry" />
        </mxCell>
        <mxCell id="SF0BS2AjwP8YmUdi56_B-26" value="" style="rounded=0;whiteSpace=wrap;html=1;" vertex="1" parent="1">
          <mxGeometry x="95" y="190" width="10" height="150" as="geometry" />
        </mxCell>
        <mxCell id="9mUgk6PYQdZ4tkyqG1O2-64" value="Schleife" style="shape=card;whiteSpace=wrap;html=1;direction=south;noLabel=0;flipV=1;size=20;align=left;" parent="1" vertex="1">
          <mxGeometry x="80" y="180" width="70" height="30" as="geometry" />
        </mxCell>
        <mxCell id="SF0BS2AjwP8YmUdi56_B-32" value="" style="html=1;points=[[0,0,0,0,5],[0,1,0,0,-5],[1,0,0,0,5],[1,1,0,0,-5]];perimeter=orthogonalPerimeter;outlineConnect=0;targetShapes=umlLifeline;portConstraint=eastwest;newEdgeStyle={&quot;curved&quot;:0,&quot;rounded&quot;:0};" vertex="1" parent="1">
          <mxGeometry x="100" y="227.5" width="10" height="102.5" as="geometry" />
        </mxCell>
      </root>
    </mxGraphModel>
  </diagram>
</mxfile>
